
<svg xmlns="http://www.w3.org/2000/svg" style="display: none;">
  
  <symbol id="rays" viewBox="0 0 280 280">
    <g fill="none" stroke="currentColor" stroke-linecap="round">
      <path d="M 40 140 Q 100 140 140 80" stroke-width="2" opacity="0.9"></path>
      <path d="M 30 140 Q 110 140 150 60" stroke-width="2" opacity="0.7"></path>
      <path d="M 20 140 Q 120 140 160 40" stroke-width="2" opacity="0.5"></path>
      <path d="M 10 140 Q 130 140 170 20" stroke-width="2" opacity="0.35"></path>
      <path d="M 0  140 Q 140 140 180 0" stroke-width="2" opacity="0.2"></path>
      <circle cx="56" cy="140" r="3" fill="currentColor" stroke="none" opacity="0.9"></circle>
      <circle cx="142" cy="80" r="3" fill="currentColor" stroke="none" opacity="0.6"></circle>
      <circle cx="158" cy="48" r="2" fill="currentColor" stroke="none" opacity="0.4"></circle>
    </g>
  </symbol>

  
  <symbol id="chevrons" viewBox="0 0 400 28" preserveAspectRatio="none">
    <g fill="none" stroke="currentColor" stroke-width="1.5" stroke-linecap="round">
      <polyline points="0,18 12,8 24,18 36,8 48,18 60,8 72,18 84,8 96,18 108,8 120,18 132,8 144,18 156,8 168,18 180,8 192,18 204,8 216,18 228,8 240,18 252,8 264,18 276,8 288,18 300,8 312,18 324,8 336,18 348,8 360,18 372,8 384,18 396,8"></polyline>
      <polyline points="0,26 12,16 24,26 36,16 48,26 60,16 72,26 84,16 96,26 108,16 120,26 132,16 144,26 156,16 168,26 180,16 192,26 204,16 216,26 228,16 240,26 252,16 264,26 276,16 288,26 300,16 312,26 324,16 336,26 348,16 360,26 372,16 384,26 396,16" opacity="0.4"></polyline>
    </g>
  </symbol>

  
  <symbol id="heart" viewBox="0 0 200 200">
    <g fill="none" stroke="currentColor" stroke-width="1.5" stroke-linejoin="round" stroke-linecap="round">
      <path d="M 100 175 C 50 145, 25 110, 25 78 C 25 50, 50 28, 75 28 C 88 28, 100 36, 100 50 C 100 36, 112 28, 125 28 C 150 28, 175 50, 175 78 C 175 110, 150 145, 100 175 Z"></path>
      <path d="M 75 80 Q 100 70 125 80"></path>
      <path d="M 80 105 Q 100 115 120 105"></path>
      <circle cx="78" cy="92" r="2.5" fill="currentColor"></circle>
      <circle cx="122" cy="92" r="2.5" fill="currentColor"></circle>
      <path d="M 95 130 L 100 140 L 105 130"></path>
    </g>
  </symbol>

  
  <symbol id="topo" viewBox="0 0 200 80">
    <g fill="none" stroke="currentColor" stroke-width="1" opacity="0.7">
      <path d="M 0 60 Q 30 50, 60 55 T 120 50 T 200 45"></path>
      <path d="M 0 50 Q 30 38, 60 42 T 120 36 T 200 30"></path>
      <path d="M 0 38 Q 30 22, 60 28 T 120 18 T 200 12"></path>
      <circle cx="100" cy="40" r="3" fill="currentColor" stroke="none"></circle>
      <line x1="100" y1="40" x2="100" y2="78" stroke-dasharray="2 3"></line>
    </g>
  </symbol>
</svg>